<svg xmlns="http://www.w3.org/2000/svg" width="122" height="45" viewBox="0 0 122 45">
  <path fill="#FFFFFF" fill-rule="evenodd" d="M648.449757,24.808752 L651.581037,23.1592382 C651.581037,23.1592382 650.099271,20.2795786 646.324959,20.2795786 C642.858185,20.2795786 640.397893,22.6839546 640.397893,25.3679092 C640.397893,28.0798217 642.13128,29.226094 643.920583,30.232577 L647.219611,32.0777958 C648.617504,32.8606159 649.45624,33.6154781 649.45624,34.7617504 C649.45624,36.2714749 648.058347,37.2779579 646.632496,37.2779579 C644.955024,37.2779579 643.473258,36.2155592 642.243112,34.4821718 L639,36.2155592 C639.587115,37.4177472 641.628039,40.6888169 646.129254,40.6888169 C650.043355,40.6888169 653.258509,38.0048622 653.258509,34.7058347 C653.258509,31.7982172 651.636953,30.2884927 649.008914,28.834684 L645.709887,26.9894652 C644.675446,26.4023501 644.339951,25.8991086 644.339951,25.2281199 C644.339951,24.4732577 645.066856,23.6345219 646.213128,23.6345219 C647.219611,23.6345219 648.058347,24.4452998 648.449757,24.808752 L648.449757,24.808752 Z M664.693274,26.2905186 L664.693274,35.9639384 C664.078201,37.1102107 663.155592,37.3338736 661.925446,37.3338736 C660.527553,37.3338736 659.549028,36.1596434 659.549028,34.8176661 L659.549028,26.2905186 L656.054295,26.2905186 L656.054295,35.6564019 C656.054295,38.2005673 658.34684,40.6888169 661.08671,40.6888169 C662.708266,40.6888169 663.910454,40.0737439 664.693274,39.1231767 L664.972853,40.2694489 L668.188006,40.2694489 L668.188006,26.2905186 L664.693274,26.2905186 Z M678.141005,30.623987 L680.880875,28.8905997 C680.880875,28.8905997 679.427066,25.8711507 675.84846,25.8711507 C673.136548,25.8711507 671.207455,27.7443274 671.207455,29.7013776 C671.207455,31.6863857 672.074149,33.1681524 674.366694,34.0628039 L676.491491,34.9015397 C677.55389,35.3209076 677.861426,35.8800648 677.861426,36.439222 C677.861426,37.054295 677.386143,37.6134522 676.100081,37.6134522 C674.366694,37.6134522 673.89141,35.9080227 673.89141,35.9080227 L670.844003,37.445705 C670.844003,37.445705 671.962318,40.6888169 676.351702,40.6888169 C679.427066,40.6888169 681.440032,38.8715559 681.440032,36.5230956 C681.440032,34.034846 679.930308,33.028363 678.364668,32.3853323 L675.792545,31.3508914 C675.093598,31.0713128 674.702188,30.623987 674.702188,29.9809562 C674.702188,29.3379254 675.261345,28.8905997 676.128039,28.8905997 C677.497974,28.8905997 678.141005,30.623987 678.141005,30.623987 L678.141005,30.623987 Z M691.420989,29.5056726 L691.420989,26.2905186 L688.149919,26.2905186 L688.149919,22.3764182 L684.934765,22.3764182 L684.934765,25.1722042 C684.934765,25.7872771 684.431524,26.2905186 683.816451,26.2905186 L682.837925,26.2905186 L682.837925,29.5056726 L684.655186,29.5056726 L684.655186,36.0757699 C684.655186,38.3962723 686.584279,40.2694489 688.904781,40.2694489 L690.582253,40.2694489 L690.582253,37.054295 L689.547812,37.054295 C688.764992,37.054295 688.149919,36.439222 688.149919,35.6564019 L688.149919,29.5056726 L691.420989,29.5056726 Z M706.713938,37.054295 C705.931118,37.054295 705.316045,36.439222 705.316045,35.6564019 L705.316045,30.7078606 C705.316045,27.6324959 703.331037,25.8711507 699.361021,25.8711507 C696.229741,25.8711507 694.608185,27.213128 693.657618,29.1142626 L696.397488,30.6799028 C696.397488,30.6799028 696.984603,28.8905997 699.361021,28.8905997 C700.870746,28.8905997 701.821313,29.3658833 701.821313,30.2046191 C701.821313,30.7917342 701.709481,31.4627229 698.745948,31.9380065 C697.012561,32.2175851 694.80389,32.6089951 693.965154,33.7273096 L693.965154,38.3683144 C695.307131,39.7941653 696.649109,40.6888169 698.745948,40.6888169 C700.367504,40.6888169 701.905186,39.9059968 702.77188,38.7597245 C703.5547,39.6823339 704.700972,40.2694489 706.014992,40.2694489 L706.853728,40.2694489 L706.853728,37.054295 L706.713938,37.054295 Z M699.305105,37.6693679 C698.494327,37.6693679 697.767423,37.4177472 697.124392,36.9704214 L697.124392,35.1531605 C698.32658,34.4262561 700.507293,34.649919 701.821313,33.8670989 L701.821313,35.0133712 C701.821313,36.9704214 700.647083,37.6693679 699.305105,37.6693679 L699.305105,37.6693679 Z M711.606564,24.4732577 C710.34846,24.4732577 709.369935,23.4947326 709.369935,22.2366288 C709.369935,21.006483 710.34846,20 711.606564,20 C712.83671,20 713.843193,21.006483 713.843193,22.2366288 C713.843193,23.4947326 712.83671,24.4732577 711.606564,24.4732577 L711.606564,24.4732577 Z M713.367909,40.2694489 L709.817261,40.2694489 L709.817261,26.2905186 L713.367909,26.2905186 L713.367909,40.2694489 Z M724.690843,25.8711507 C723.041329,25.8711507 721.755267,26.6539708 720.888574,27.8002431 L720.525122,26.2905186 L717.337925,26.2905186 L717.337925,40.2694489 L720.8047,40.2694489 L720.8047,32.5810373 C720.8047,30.7358185 722.314425,29.226094 724.159643,29.226094 C724.774716,29.226094 725.333874,29.3938412 725.837115,29.6734198 L725.837115,40.2694489 L729.387763,40.2694489 L729.387763,28.3594003 C728.38128,26.8776337 726.619935,25.8711507 724.690843,25.8711507 L724.690843,25.8711507 Z M742.080632,36.439222 C742.080632,36.439222 741.32577,37.3897893 739.536467,37.3897893 C737.719206,37.3897893 736.153566,36.243517 735.594408,34.649919 L744.485008,34.649919 L744.485008,32.4132901 L744.485008,27.8002431 C743.170989,26.5980551 741.465559,25.8711507 739.536467,25.8711507 C735.482577,25.8711507 732.183549,29.1701783 732.183549,33.2799838 C732.183549,37.3618314 735.482577,40.6888169 739.536467,40.6888169 C742.723663,40.6888169 744.540924,38.6758509 744.540924,38.6758509 L742.080632,36.439222 Z M739.536467,29.1701783 C740.263371,29.1701783 740.850486,29.2820097 741.297812,29.5336305 L741.297812,31.9939222 L735.566451,31.9939222 C736.09765,30.3723663 737.691248,29.1701783 739.536467,29.1701783 L739.536467,29.1701783 Z M756.506888,20.2795786 L756.506888,27.7443274 C755.668152,26.5700972 754.438006,25.8711507 752.760535,25.8711507 C749.126013,25.8711507 746.637763,29.1422204 746.637763,33.2799838 C746.637763,37.3897893 749.126013,40.6888169 752.760535,40.6888169 C754.410049,40.6888169 755.612237,40.0178282 756.450972,38.8715559 L756.786467,40.2694489 L760.001621,40.2694489 L760.001621,20.2795786 L756.506888,20.2795786 Z M753.319692,37.3338736 C751.334684,37.3338736 750.132496,35.5166126 750.132496,33.2799838 C750.132496,31.0153971 751.334684,29.226094 753.319692,29.226094 C755.3047,29.226094 756.506888,31.0153971 756.506888,33.2799838 C756.506888,35.5166126 755.3047,37.3338736 753.319692,37.3338736 L753.319692,37.3338736 Z M650.434765,64.5806321 L654.348865,64.5806321 L650.63047,57.3675041 C652.783225,56.3051053 654.097245,54.0125608 654.097245,51.9995948 C654.097245,48.14141 650.993922,45.0101297 647.10778,45.0101297 L643.976499,45.0101297 L640.397893,45.0101297 L640.397893,64.5806321 L643.976499,64.5806321 L643.976499,57.8707455 L647.079822,57.8707455 L650.434765,64.5806321 Z M643.976499,48.3371151 L647.10778,48.3371151 C648.813209,48.3371151 650.462723,49.7350081 650.462723,51.8038898 C650.462723,53.2297407 649.959481,53.9286872 649.204619,54.5158023 L643.976499,54.5158023 L643.976499,48.3371151 Z M666.342788,60.7504052 C666.342788,60.7504052 665.587925,61.7009724 663.798622,61.7009724 C661.981361,61.7009724 660.415721,60.5547002 659.856564,58.9611021 L668.747164,58.9611021 L668.747164,56.7244733 L668.747164,52.1114263 C667.433144,50.9092382 665.727715,50.1823339 663.798622,50.1823339 C659.744733,50.1823339 656.445705,53.4813614 656.445705,57.5911669 C656.445705,61.6730146 659.744733,65 663.798622,65 C666.985818,65 668.803079,62.987034 668.803079,62.987034 L666.342788,60.7504052 Z M663.798622,53.4813614 C664.525527,53.4813614 665.112642,53.5931929 665.559968,53.8448136 L665.559968,56.3051053 L659.828606,56.3051053 C660.359806,54.6835494 661.953404,53.4813614 663.798622,53.4813614 L663.798622,53.4813614 Z M676.966775,61.3654781 C676.183955,61.3654781 675.568882,60.7504052 675.568882,59.9675851 L675.568882,44.5907618 L672.018233,44.5907618 L672.018233,60.386953 C672.018233,62.7074554 673.947326,64.5806321 676.267828,64.5806321 L677.9453,64.5806321 L677.9453,61.3654781 L676.966775,61.3654781 Z M690.35859,60.7504052 C690.35859,60.7504052 689.603728,61.7009724 687.814425,61.7009724 C685.997164,61.7009724 684.431524,60.5547002 683.872366,58.9611021 L692.762966,58.9611021 L692.762966,56.7244733 L692.762966,52.1114263 C691.448947,50.9092382 689.743517,50.1823339 687.814425,50.1823339 C683.760535,50.1823339 680.461507,53.4813614 680.461507,57.5911669 C680.461507,61.6730146 683.760535,65 687.814425,65 C691.001621,65 692.818882,62.987034 692.818882,62.987034 L690.35859,60.7504052 Z M687.814425,53.4813614 C688.541329,53.4813614 689.128444,53.5931929 689.57577,53.8448136 L689.57577,56.3051053 L683.844408,56.3051053 C684.375608,54.6835494 685.969206,53.4813614 687.814425,53.4813614 L687.814425,53.4813614 Z M708.251621,61.3654781 C707.468801,61.3654781 706.853728,60.7504052 706.853728,59.9675851 L706.853728,55.0190438 C706.853728,51.9436791 704.86872,50.1823339 700.898703,50.1823339 C697.767423,50.1823339 696.145867,51.5243112 695.1953,53.4254457 L697.93517,54.9910859 C697.93517,54.9910859 698.522285,53.2017828 700.898703,53.2017828 C702.408428,53.2017828 703.358995,53.6770665 703.358995,54.5158023 C703.358995,55.1029173 703.247164,55.773906 700.28363,56.2491896 C698.550243,56.5287682 696.341572,56.9201783 695.502836,58.0384927 L695.502836,62.6794976 C696.844814,64.1053485 698.186791,65 700.28363,65 C701.905186,65 703.442869,64.2171799 704.309562,63.0709076 C705.092382,63.993517 706.238655,64.5806321 707.552674,64.5806321 L708.39141,64.5806321 L708.39141,61.3654781 L708.251621,61.3654781 Z M700.842788,61.9805511 C700.03201,61.9805511 699.305105,61.7289303 698.662075,61.2816045 L698.662075,59.4643436 C699.864263,58.7374392 702.044976,58.9611021 703.358995,58.178282 L703.358995,59.3245543 C703.358995,61.2816045 702.184765,61.9805511 700.842788,61.9805511 L700.842788,61.9805511 Z M717.505673,54.9351702 L720.245543,53.2017828 C720.245543,53.2017828 718.791734,50.1823339 715.213128,50.1823339 C712.501216,50.1823339 710.572123,52.0555105 710.572123,54.0125608 C710.572123,55.9975689 711.438817,57.4793355 713.731361,58.373987 L715.856159,59.2127229 C716.918558,59.6320908 717.226094,60.191248 717.226094,60.7504052 C717.226094,61.3654781 716.75081,61.9246353 715.464749,61.9246353 C713.731361,61.9246353 713.256078,60.2192058 713.256078,60.2192058 L710.208671,61.7568882 C710.208671,61.7568882 711.326985,65 715.71637,65 C718.791734,65 720.8047,63.1827391 720.8047,60.8342788 C720.8047,58.3460292 719.294976,57.3395462 717.729335,56.6965154 L715.157212,55.6620746 C714.458266,55.3824959 714.066856,54.9351702 714.066856,54.2921394 C714.066856,53.6491086 714.626013,53.2017828 715.492707,53.2017828 C716.862642,53.2017828 717.505673,54.9351702 717.505673,54.9351702 L717.505673,54.9351702 Z M732.658833,60.7504052 C732.658833,60.7504052 731.903971,61.7009724 730.114668,61.7009724 C728.297407,61.7009724 726.731767,60.5547002 726.172609,58.9611021 L735.063209,58.9611021 L735.063209,56.7244733 L735.063209,52.1114263 C733.74919,50.9092382 732.04376,50.1823339 730.114668,50.1823339 C726.060778,50.1823339 722.76175,53.4813614 722.76175,57.5911669 C722.76175,61.6730146 726.060778,65 730.114668,65 C733.301864,65 735.119125,62.987034 735.119125,62.987034 L732.658833,60.7504052 Z M730.114668,53.4813614 C730.841572,53.4813614 731.428687,53.5931929 731.876013,53.8448136 L731.876013,56.3051053 L726.144652,56.3051053 C726.675851,54.6835494 728.269449,53.4813614 730.114668,53.4813614 Z M739.052674,64.6061588 L760.203404,64.6061588 L760.203404,61.0555105 L739.052674,61.0555105 L739.052674,64.6061588 Z" transform="translate(-639 -20)"/>
</svg>
